<?xml version="1.0" encoding="iso-8859-1"?>
<!-- Uploaded to: SVG Repo, www.svgrepo.com, Generator: SVG Repo Mixer Tools -->
<svg width="70px" height="70px" version="1.1" id="Layer_1" xmlns="http://www.w3.org/2000/svg"
	 viewBox="0 0 503.322 503.322" xml:space="preserve">
<g>
	<path style="fill:#F4E6CE;" d="M442.576,459.93H60.746C27.197,459.93,0,432.734,0,399.185v-86.78
		c0-33.549,27.197-60.746,60.746-60.746h381.831c33.549,0,60.746,27.197,60.746,60.746v86.78
		C503.322,432.734,476.125,459.93,442.576,459.93"/>
	<g>
		<polygon style="fill:#F29C1F;" points="112.81,459.934 147.522,459.934 147.522,251.663 112.81,251.663 		"/>
		<polygon style="fill:#F29C1F;" points="364.471,459.934 399.183,459.934 399.183,251.663 364.471,251.663 		"/>
	</g>
	<path style="fill:#67B9CC;" d="M399.186,251.659h-34.712c0-95.701-50.61-173.559-112.814-173.559
		c-56.45,0-104.136,79.481-104.136,173.559h-34.712c0-114.836,62.29-208.271,138.847-208.271
		C333.008,43.388,399.186,136.824,399.186,251.659"/>
	<path style="fill:#F29C1F;" d="M286.373,390.507h-69.424c-14.379,0-26.034-11.654-26.034-26.034v-17.356
		c0-14.379,11.655-26.034,26.034-26.034h69.424c14.379,0,26.034,11.655,26.034,26.034v17.356
		C312.407,378.852,300.752,390.507,286.373,390.507"/>
</g>
</svg>